<svg width="80" height="75" viewBox="0 0 80 75" fill="none" xmlns="http://www.w3.org/2000/svg">
<path d="M71.1812 0H8.7987C6.54258 0 4.37887 0.846618 2.78355 2.35361C1.18823 3.8606 0.291992 5.90451 0.291992 8.03571L0.291992 66.9643C0.291992 69.0955 1.18823 71.1394 2.78355 72.6464C4.37887 74.1534 6.54258 75 8.7987 75H33.1226V49.5017H21.9575V37.5H33.1226V28.3527C33.1226 17.9481 39.6798 12.2009 49.723 12.2009C54.5329 12.2009 59.5625 13.0112 59.5625 13.0112V23.2232H54.0207C48.5605 23.2232 46.8573 26.4241 46.8573 29.707V37.5H59.0468L57.0973 49.5017H46.8573V75H71.1812C73.4373 75 75.601 74.1534 77.1964 72.6464C78.7917 71.1394 79.6879 69.0955 79.6879 66.9643V8.03571C79.6879 5.90451 78.7917 3.8606 77.1964 2.35361C75.601 0.846618 73.4373 0 71.1812 0V0Z" fill="#3DA4A4"/>
</svg>
