<svg width="80" height="75" viewBox="0 0 80 75" fill="none" xmlns="http://www.w3.org/2000/svg">
<path d="M39.7068 18.2709C28.4417 18.2709 19.3552 26.8562 19.3552 37.5C19.3552 48.1438 28.4417 56.7291 39.7068 56.7291C50.9719 56.7291 60.0584 48.1438 60.0584 37.5C60.0584 26.8562 50.9719 18.2709 39.7068 18.2709ZM39.7068 50.0014C32.427 50.0014 26.4756 44.395 26.4756 37.5C26.4756 30.605 32.4093 24.9986 39.7068 24.9986C47.0043 24.9986 52.938 30.605 52.938 37.5C52.938 44.395 46.9866 50.0014 39.7068 50.0014V50.0014ZM65.6378 17.4844C65.6378 19.978 63.5123 21.9695 60.8909 21.9695C58.2517 21.9695 56.1439 19.9612 56.1439 17.4844C56.1439 15.0075 58.2694 12.9993 60.8909 12.9993C63.5123 12.9993 65.6378 15.0075 65.6378 17.4844ZM79.117 22.0364C78.8159 16.0284 77.3634 10.7065 72.7051 6.32182C68.0644 1.93713 62.4319 0.564822 56.0731 0.263584C49.5195 -0.0878612 29.8764 -0.0878612 23.3228 0.263584C16.9818 0.548087 11.3492 1.92039 6.69087 6.30509C2.0325 10.6898 0.597794 16.0117 0.278971 22.0197C-0.0929902 28.2118 -0.0929902 46.7714 0.278971 52.9636C0.580082 58.9716 2.0325 64.2935 6.69087 68.6782C11.3492 73.0629 16.9641 74.4352 23.3228 74.7364C29.8764 75.0879 49.5195 75.0879 56.0731 74.7364C62.4319 74.4519 68.0644 73.0796 72.7051 68.6782C77.3457 64.2935 78.7981 58.9716 79.117 52.9636C79.4889 46.7714 79.4889 28.2286 79.117 22.0364V22.0364ZM70.6504 59.6076C69.2689 62.8877 66.5943 65.4148 63.1049 66.7369C57.8798 68.6949 45.4811 68.2431 39.7068 68.2431C33.9326 68.2431 21.5162 68.6782 16.3087 66.7369C12.8371 65.4315 10.1625 62.9044 8.76322 59.6076C6.69087 54.6706 7.1691 42.9558 7.1691 37.5C7.1691 32.0442 6.70858 20.3127 8.76322 15.3924C10.1448 12.1123 12.8194 9.58524 16.3087 8.26314C21.5339 6.30509 33.9326 6.75694 39.7068 6.75694C45.4811 6.75694 57.8975 6.32182 63.1049 8.26314C66.5766 9.5685 69.2511 12.0956 70.6504 15.3924C72.7228 20.3294 72.2445 32.0442 72.2445 37.5C72.2445 42.9558 72.7228 54.6873 70.6504 59.6076Z" fill="#3DA4A4"/>
</svg>
