<svg width="75" height="57" viewBox="0 0 75 57" fill="none" xmlns="http://www.w3.org/2000/svg">
<path d="M9.86159 38.6858C9.86159 34.8202 9.86159 26.4448 9.86159 22.5792C14.21 26.974 18.5339 31.3458 22.8824 35.7406C27.1571 31.2998 31.4318 26.859 35.7066 22.3951C35.7557 24.8341 35.8294 27.2731 35.9031 29.7121C38.5073 27.2731 41.136 24.8341 43.7647 22.3951C43.7647 21.2447 43.7647 20.1172 43.7647 18.9897C43.7401 14.3188 43.691 9.71693 43.5682 5.16107C36.7384 11.9488 29.9087 18.7136 23.0789 25.5014C16.0526 18.6676 9.0263 11.8338 2 5C2 19.2198 2 32.4502 2 46.6471C6.22561 42.4363 5.83253 42.8965 9.86159 38.6858Z" stroke="white" stroke-width="3.7115" stroke-miterlimit="10"/>
<path d="M37.5 39.8556C37.5 44.7313 37.5 49.5802 37.5 54.4559H60.913C61.3755 54.4559 61.8669 54.4023 62.3294 54.3219C64.4105 53.9469 69.7291 52.6074 71.9837 48.1872C73.6312 44.9992 72.8219 41.9184 72.6485 40.6325C72.4172 39.1055 71.579 36.0783 68.3705 34.5513C66.6362 33.7476 65.1043 33.2922 64.0926 33.2119C65.0465 32.8904 68.833 31.5509 70.5095 28.0951C71.6079 25.8715 71.3188 23.8088 71.1743 22.6032C70.972 21.2102 70.6251 18.6652 68.3994 16.522C65.3066 13.602 60.8552 13.6555 60.0459 13.6823C57.7624 15.9594 55.4789 18.2365 53.1954 20.4869C53.8313 20.4869 54.7852 20.5136 55.9703 20.4869C58.2249 20.4601 58.3405 20.4333 58.7452 20.4869C60.5662 20.8083 62.2716 22.5764 62.5895 24.4517C62.9364 26.4341 61.7802 28.5505 59.6123 29.7828C59.0053 30.1311 58.3116 30.2918 57.6179 30.3186C53.8602 30.3722 50.1026 30.4525 46.3449 30.4793V27.6396C43.4833 30.4257 40.4194 33.1851 37.5867 35.9712C37.4422 37.3374 37.5867 38.5965 37.5 39.8556Z" stroke="white" stroke-width="3.6181" stroke-miterlimit="10"/>
<path d="M45.0005 37.1029H58.2569C58.8638 37.1029 59.5026 37.1764 60.0776 37.3477C62.8567 38.1308 64.7094 40.0641 64.6455 42.1442C64.5816 43.637 63.5914 44.983 61.9303 45.9129C61.0679 46.4023 59.9818 46.6471 58.8957 46.6471H44.8088C44.8408 43.4412 44.9366 40.2843 45.0005 37.1029Z" stroke="white" stroke-width="3.6181" stroke-miterlimit="10"/>
</svg>
