<svg width="78" height="75" viewBox="0 0 78 75" fill="none" xmlns="http://www.w3.org/2000/svg">
<path d="M69.1097 0H8.80664C4.26678 0 0.583496 3.59933 0.583496 8.03571V66.9643C0.583496 71.4007 4.26678 75 8.80664 75H69.1097C73.6496 75 77.3329 71.4007 77.3329 66.9643V8.03571C77.3329 3.59933 73.6496 0 69.1097 0ZM60.7324 26.5848C60.7667 27.0536 60.7667 27.5391 60.7667 28.0078C60.7667 42.5223 49.4598 59.2467 28.7992 59.2467C22.4262 59.2467 16.5158 57.4386 11.5477 54.3248C12.4557 54.4252 13.3294 54.4587 14.2545 54.4587C19.5139 54.4587 24.345 52.7176 28.1996 49.7712C23.2657 49.6708 19.1198 46.5067 17.6979 42.154C19.4282 42.4051 20.9872 42.4051 22.7689 41.9531C17.6294 40.9319 13.7748 36.5123 13.7748 31.1719V31.0379C15.2652 31.8583 17.0127 32.3605 18.8457 32.4275C17.3046 31.4257 16.0413 30.0667 15.1684 28.4718C14.2955 26.8768 13.8403 25.0955 13.8433 23.2868C13.8433 21.2444 14.3915 19.3694 15.368 17.7455C20.9015 24.4085 29.2103 28.7612 38.5299 29.2299C36.9367 21.7801 42.6415 15.7366 49.4941 15.7366C52.732 15.7366 55.6443 17.0592 57.7001 19.202C60.2356 18.7333 62.6683 17.8125 64.8268 16.5569C63.9874 19.1016 62.2228 21.2444 59.893 22.6004C62.1543 22.3661 64.3472 21.7467 66.3687 20.8929C64.844 23.0859 62.9252 25.0279 60.7324 26.5848Z" fill="#3DA4A4"/>
</svg>
